<?xml version="1.0" encoding="UTF-8" standalone="no"?>
<svg
   viewBox="0 0 49.995823 48.5"
   stroke-width="3"
   stroke="currentColor"
   fill="none"
   version="1.1"
   id="svg24"
   sodipodi:docname="icone.svg"
   width="49.995823"
   height="48.5"
   inkscape:version="1.2.2 (b0a8486, 2022-12-01)"
   xmlns:inkscape="http://www.inkscape.org/namespaces/inkscape"
   xmlns:sodipodi="http://sodipodi.sourceforge.net/DTD/sodipodi-0.dtd"
   xmlns="http://www.w3.org/2000/svg"
   xmlns:svg="http://www.w3.org/2000/svg">
  <defs
     id="defs28" />
  <sodipodi:namedview
     id="namedview26"
     pagecolor="#ffffff"
     bordercolor="#000000"
     borderopacity="0.25"
     inkscape:showpageshadow="2"
     inkscape:pageopacity="0.0"
     inkscape:pagecheckerboard="0"
     inkscape:deskcolor="#d1d1d1"
     showgrid="false"
     inkscape:zoom="7.1136721"
     inkscape:cx="44.280928"
     inkscape:cy="24.389654"
     inkscape:window-width="1280"
     inkscape:window-height="747"
     inkscape:window-x="0"
     inkscape:window-y="25"
     inkscape:window-maximized="0"
     inkscape:current-layer="svg24" />
  <rect
     x="1.5"
     y="1.5"
     width="10.68"
     height="45.490002"
     rx="0.2"
     stroke-linecap="round"
     id="rect2" />
  <line
     x1="1.5"
     y1="6.5100002"
     x2="5.3000002"
     y2="6.5100002"
     stroke-linecap="square"
     id="line4" />
  <line
     x1="1.5"
     y1="11.629999"
     x2="5.3000002"
     y2="11.629999"
     stroke-linecap="square"
     id="line6" />
  <line
     x1="1.5"
     y1="16.76"
     x2="5.3000002"
     y2="16.76"
     stroke-linecap="square"
     id="line8" />
  <line
     x1="1.5"
     y1="21.889999"
     x2="5.3000002"
     y2="21.889999"
     stroke-linecap="square"
     id="line10" />
  <line
     x1="1.5"
     y1="27.02"
     x2="5.3000002"
     y2="27.02"
     stroke-linecap="square"
     id="line12" />
  <line
     x1="1.5"
     y1="31.970001"
     x2="5.3000002"
     y2="31.970001"
     stroke-linecap="square"
     id="line14" />
  <line
     x1="1.5"
     y1="36.91"
     x2="5.3000002"
     y2="36.91"
     stroke-linecap="square"
     id="line16" />
  <line
     x1="1.5"
     y1="41.860001"
     x2="5.3000002"
     y2="41.860001"
     stroke-linecap="square"
     id="line18" />
  <path
     d="M 17.16,2.08 V 46.82 A 0.19,0.19 0 0 0 17.34,47 h 31 a 0.19,0.19 0 0 0 0.15,-0.29 l -31,-44.73 a 0.18,0.18 0 0 0 -0.33,0.1 z"
     stroke-linecap="round"
     id="path20" />
  <path
     d="m 22.38,18.73 v 22.71 a 0.09,0.09 0 0 0 0.08,0.08 h 15.17 a 0.2,0.2 0 0 0 0.16,-0.31 L 22.53,18.68 a 0.08,0.08 0 0 0 -0.15,0.05 z"
     stroke-linecap="round"
     id="path22" />
</svg>
